<svg xmlns="http://www.w3.org/2000/svg" width="1382.999" height="577.51" viewBox="0 0 1382.999 577.51">
  <path id="Subtraction_1" data-name="Subtraction 1" d="M350.8,950.021c-32.917,0-64.6-.7-94.174-2.084-31.647-1.48-62.109-3.8-90.541-6.889-30.1-3.272-58.994-7.526-85.882-12.645-13.97-2.659-27.722-5.613-40.874-8.778-13.458-3.239-26.689-6.8-39.325-10.574V372.511H1383V944.18c-8.333-3.339-17.232-6.485-26.449-9.349-9.027-2.8-18.619-5.42-28.512-7.774a609.53,609.53,0,0,0-62.774-11.227c-21.4-2.755-44.854-4.822-69.713-6.141-23.341-1.238-48.836-1.866-75.779-1.866-25.943,0-53.249.554-83.477,1.692-27.01,1.017-55.8,2.483-88.019,4.482-59.988,3.722-121.1,8.612-185.8,13.79l-.612.049-13.577,1.086c-67.888,5.427-134.252,10.619-199.784,14.5-35.868,2.126-68.465,3.69-99.653,4.78C413.942,949.427,381.868,950.021,350.8,950.021Z" transform="translate(1382.999 950.021) rotate(180)" fill="#ffbd00"/>
</svg>
